<svg width="12" height="10" viewBox="0 0 12 10" fill="none" xmlns="http://www.w3.org/2000/svg">
<path d="M3.70117 5.13923C3.5 4.84713 3.125 4.44594 3.125 4.09884C3.12945 3.9863 3.17062 3.87763 3.24311 3.78706C3.3156 3.69649 3.41603 3.62825 3.53125 3.59127C3.5127 3.29917 3.5 3.00166 3.5 2.70685C3.5 2.53285 3.5 2.35705 3.51074 2.18485C3.52055 2.07533 3.54181 1.96694 3.57422 1.86119C3.72142 1.41852 4.04211 1.04242 4.47363 0.806379C4.62796 0.719285 4.79158 0.647081 4.96191 0.590909C5.27344 0.48723 5.11914 0.00670391 5.45801 0.000393052C6.25 -0.0185395 7.55176 0.650411 8.05957 1.15798C8.38321 1.4884 8.56727 1.91529 8.57812 2.36065L8.5459 3.64085C8.62082 3.65521 8.69061 3.68678 8.74882 3.73263C8.80703 3.77849 8.85177 3.83716 8.87891 3.90321C8.9873 4.308 8.5332 4.81017 8.32227 5.13202C8.12695 5.42863 7.38281 6.38788 7.38281 6.39419C7.38685 6.44912 7.41016 6.50134 7.44922 6.54295C8.60449 8.00887 12 7.08388 12 9.99949H0C0 7.08297 3.39648 8.00977 4.55078 6.54385C4.60742 6.46722 4.63379 6.42484 4.63281 6.39149C4.63281 6.37255 3.77734 5.25553 3.70117 5.14284V5.13923Z" fill="white"/>
</svg>
