<svg width="12" height="9" viewBox="0 0 12 9" fill="none" xmlns="http://www.w3.org/2000/svg">
<path fill-rule="evenodd" clip-rule="evenodd" d="M12 1.06217C11.5514 1.24638 11.0752 1.36675 10.5875 1.41918C11.1004 1.13525 11.4849 0.689832 11.6702 0.164922C11.1869 0.429293 10.6585 0.616062 10.1075 0.717282C9.76997 0.385295 9.33223 0.154566 8.851 0.055001C8.36977 -0.0445643 7.86724 -0.00837497 7.40856 0.158878C6.94987 0.326131 6.55617 0.616736 6.27848 0.993028C6.00079 1.36932 5.85192 1.81395 5.85117 2.26928C5.85127 2.44334 5.87232 2.61685 5.91391 2.78661C4.93559 2.7412 3.97856 2.50626 3.10499 2.09706C2.23143 1.68786 1.46087 1.11356 0.843385 0.411463C0.624439 0.758255 0.50913 1.1525 0.509241 1.55391C0.509541 1.92715 0.609573 2.29456 0.800468 2.62356C0.991363 2.95257 1.26722 3.233 1.6036 3.44002C1.21294 3.42768 0.83096 3.33028 0.488813 3.15575V3.18539C0.487053 3.71114 0.68288 4.22117 1.0429 4.6285C1.40291 5.03583 1.90482 5.31524 2.46303 5.41908C2.25135 5.47212 2.03305 5.4993 1.81372 5.49992C1.65799 5.49903 1.50268 5.48505 1.34971 5.45815C1.50726 5.90926 1.81337 6.30372 2.22534 6.58652C2.63731 6.86933 3.1346 7.02637 3.64786 7.03575C2.61488 7.78322 1.30319 8.12232 0 7.9788C1.1253 8.64705 2.43539 9.00161 3.77335 9C8.29669 9 10.7772 5.53764 10.7772 2.53334C10.7772 2.43364 10.7772 2.33664 10.7699 2.23829C11.2521 1.91849 11.6678 1.52098 11.9971 1.06487L12 1.06217Z" fill="white"/>
</svg>
