<svg width="33" height="33" viewBox="0 0 33 33" fill="none" xmlns="http://www.w3.org/2000/svg">
<path d="M16.0007 1.57518e-05C19.7038 -0.00104276 23.2927 1.28201 26.1558 3.63053C29.0189 5.97905 30.9791 9.24771 31.7023 12.8795C32.4254 16.5113 31.8669 20.2815 30.1218 23.5477C28.3768 26.8138 25.5531 29.3738 22.1321 30.7913C18.711 32.2089 14.9043 32.3963 11.3605 31.3217C7.81679 30.247 4.75533 27.9768 2.69784 24.8979C0.640348 21.819 -0.285849 18.1219 0.0770768 14.4366C0.440003 10.7513 2.06959 7.30593 4.68816 4.68752C6.17168 3.19905 7.93489 2.01862 9.87634 1.21416C11.8178 0.409688 13.8991 -0.0029385 16.0007 1.57518e-05ZM9.4642 4.71356C9.61012 4.62927 9.77777 4.59016 9.94592 4.6012C10.1141 4.61223 10.2752 4.67291 10.4088 4.77555C10.5425 4.87819 10.6427 5.01818 10.6967 5.17779C10.7508 5.3374 10.7563 5.50946 10.7125 5.67218C10.6687 5.83491 10.5776 5.98099 10.4508 6.09193C10.3239 6.20287 10.167 6.27368 9.9999 6.2954C9.83279 6.31711 9.66299 6.28876 9.512 6.21393C9.36101 6.1391 9.23562 6.02115 9.1517 5.87502C9.03941 5.67949 9.00925 5.44741 9.06783 5.22968C9.12642 5.01195 9.26896 4.82634 9.4642 4.71356ZM4.68816 9.51304C4.77271 9.36825 4.89824 9.25174 5.04892 9.1782C5.1996 9.10467 5.36868 9.07739 5.53484 9.09982C5.701 9.12225 5.8568 9.19338 5.98259 9.30424C6.10837 9.4151 6.19852 9.56073 6.24165 9.72275C6.28479 9.88477 6.27898 10.0559 6.22496 10.2147C6.17094 10.3734 6.07113 10.5126 5.93812 10.6146C5.8051 10.7167 5.64484 10.7771 5.47754 10.7882C5.31025 10.7994 5.1434 10.7607 4.99805 10.6771C4.90125 10.621 4.81644 10.5464 4.74847 10.4576C4.68051 10.3687 4.63071 10.2674 4.60193 10.1593C4.57315 10.0512 4.56596 9.93846 4.58075 9.82758C4.59555 9.71669 4.63204 9.60981 4.68816 9.51304ZM2.95118 16.0573C2.95118 15.8888 3.00119 15.724 3.09488 15.5839C3.18856 15.4438 3.32171 15.3347 3.47747 15.2703C3.63322 15.2059 3.80458 15.1892 3.96983 15.2223C4.13509 15.2554 4.28682 15.3367 4.40581 15.4561C4.5248 15.5754 4.60569 15.7274 4.63826 15.8928C4.67082 16.0581 4.65358 16.2294 4.58873 16.385C4.52388 16.5406 4.41433 16.6734 4.27395 16.7666C4.13357 16.8599 3.96867 16.9094 3.80014 16.9089C3.57474 16.9082 3.35881 16.8182 3.19967 16.6585C3.04054 16.4989 2.95118 16.2827 2.95118 16.0573ZM4.7168 22.5938C4.63445 22.4471 4.59736 22.2794 4.61023 22.1116C4.6231 21.9439 4.68534 21.7838 4.78911 21.6514C4.89288 21.5191 5.03352 21.4204 5.1933 21.3678C5.35309 21.3153 5.52485 21.3113 5.68693 21.3562C5.849 21.4012 5.99414 21.4931 6.10402 21.6205C6.2139 21.7478 6.28361 21.9049 6.30436 22.0718C6.3251 22.2387 6.29595 22.408 6.22058 22.5584C6.14522 22.7087 6.02701 22.8334 5.88087 22.9167C5.78394 22.9727 5.67692 23.009 5.56593 23.0236C5.45494 23.0382 5.34216 23.0308 5.23404 23.0018C5.12592 22.9728 5.02459 22.9227 4.93583 22.8545C4.84708 22.7863 4.77265 22.7012 4.7168 22.6042V22.5938ZM9.51628 27.3698C9.37114 27.2856 9.25422 27.1602 9.1803 27.0095C9.10637 26.8589 9.07876 26.6897 9.10094 26.5233C9.12312 26.357 9.19411 26.201 9.30493 26.0749C9.41575 25.9489 9.56144 25.8586 9.72359 25.8153C9.88573 25.772 10.0571 25.7778 10.2159 25.8319C10.3748 25.8859 10.5141 25.9859 10.6162 26.119C10.7183 26.2522 10.7786 26.4127 10.7896 26.5802C10.8005 26.7476 10.7616 26.9146 10.6777 27.0599C10.6217 27.1567 10.5471 27.2415 10.4582 27.3095C10.3694 27.3775 10.268 27.4273 10.1599 27.456C10.0518 27.4848 9.9391 27.492 9.82822 27.4772C9.71733 27.4624 9.61045 27.4259 9.51368 27.3698H9.51628ZM16.0632 29.1068C15.8945 29.1073 15.7295 29.0577 15.5891 28.9644C15.4486 28.871 15.3391 28.738 15.2743 28.5823C15.2095 28.4266 15.1925 28.2552 15.2252 28.0897C15.258 27.9243 15.3392 27.7723 15.4584 27.6531C15.5777 27.5338 15.7296 27.4527 15.8951 27.4199C16.0605 27.3871 16.2319 27.4042 16.3876 27.469C16.5433 27.5338 16.6763 27.6433 16.7697 27.7838C16.8631 27.9242 16.9126 28.0892 16.9121 28.2578C16.9121 28.483 16.8227 28.6989 16.6635 28.8581C16.5043 29.0173 16.2883 29.1068 16.0632 29.1068ZM22.5996 27.3438C22.4533 27.4266 22.2858 27.4644 22.1181 27.4522C21.9504 27.44 21.7901 27.3784 21.6573 27.2753C21.5246 27.1721 21.4253 27.032 21.3721 26.8725C21.3188 26.713 21.314 26.5413 21.3582 26.3791C21.4024 26.2169 21.4936 26.0714 21.6203 25.9609C21.7471 25.8504 21.9037 25.78 22.0704 25.7584C22.2372 25.7368 22.4066 25.765 22.5573 25.8395C22.708 25.914 22.8333 26.0315 22.9173 26.1771C22.9735 26.2745 23.0099 26.382 23.0243 26.4934C23.0388 26.6049 23.031 26.7182 23.0015 26.8266C22.9719 26.9351 22.9212 27.0366 22.8523 27.1254C22.7833 27.2141 22.6974 27.2884 22.5996 27.3438ZM27.3757 22.5443C27.2914 22.6901 27.1659 22.8076 27.0149 22.882C26.8638 22.9565 26.6942 22.9845 26.5272 22.9625C26.3603 22.9406 26.2036 22.8696 26.077 22.7586C25.9504 22.6477 25.8595 22.5016 25.8159 22.339C25.7722 22.1764 25.7778 22.0045 25.8318 21.8451C25.8858 21.6856 25.9859 21.5457 26.1193 21.4431C26.2528 21.3405 26.4137 21.2798 26.5817 21.2686C26.7497 21.2574 26.9172 21.2962 27.0632 21.3802C27.1602 21.4361 27.2452 21.5105 27.3135 21.5993C27.3817 21.688 27.4317 21.7893 27.4608 21.8975C27.4898 22.0056 27.4972 22.1184 27.4826 22.2293C27.468 22.3403 27.4317 22.4474 27.3757 22.5443ZM29.1126 15.9974C29.1132 16.1659 29.0636 16.3308 28.9704 16.4712C28.8771 16.6116 28.7443 16.7212 28.5888 16.786C28.4332 16.8509 28.2619 16.8681 28.0965 16.8355C27.9312 16.803 27.7792 16.7221 27.6599 16.6031C27.5405 16.4841 27.4591 16.3324 27.4261 16.1671C27.393 16.0019 27.4097 15.8305 27.4741 15.6747C27.5385 15.519 27.6476 15.3858 27.7877 15.2922C27.9278 15.1985 28.0925 15.1485 28.2611 15.1485C28.3728 15.1481 28.4835 15.1698 28.5868 15.2123C28.6901 15.2548 28.784 15.3173 28.8631 15.3962C28.9422 15.4751 29.0049 15.5688 29.0478 15.6719C29.0906 15.7751 29.1126 15.8857 29.1126 15.9974ZM27.3444 9.45835C27.4291 9.60408 27.4687 9.77167 27.458 9.93989C27.4474 10.1081 27.3871 10.2694 27.2848 10.4033C27.1824 10.5372 27.0426 10.6378 26.8831 10.6922C26.7236 10.7466 26.5515 10.7525 26.3886 10.709C26.2258 10.6656 26.0795 10.5748 25.9683 10.4481C25.857 10.3215 25.7859 10.1646 25.7639 9.99753C25.7419 9.83042 25.7699 9.66053 25.8445 9.50938C25.9191 9.35823 26.0369 9.23262 26.1829 9.14845C26.3783 9.03665 26.6099 9.00648 26.8274 9.06451C27.0449 9.12254 27.2307 9.26408 27.3444 9.45835ZM22.5449 4.68752C22.6911 4.77144 22.809 4.89683 22.8838 5.04782C22.9587 5.19881 22.987 5.3686 22.9653 5.53571C22.9436 5.70282 22.8728 5.85973 22.7618 5.98658C22.6509 6.11342 22.5048 6.2045 22.3421 6.24829C22.1794 6.29207 22.0073 6.28659 21.8477 6.23254C21.6881 6.17848 21.5481 6.07829 21.4455 5.94464C21.3428 5.81099 21.2821 5.64989 21.2711 5.48174C21.2601 5.31358 21.2992 5.14594 21.3835 5.00002C21.4963 4.80478 21.6819 4.66223 21.8996 4.60365C22.1173 4.54507 22.3494 4.57523 22.5449 4.68752ZM16.0007 2.94533C16.1691 2.94533 16.3337 2.99527 16.4738 3.08884C16.6138 3.18241 16.7229 3.31541 16.7874 3.47101C16.8519 3.62661 16.8687 3.79784 16.8359 3.96302C16.803 4.12821 16.7219 4.27994 16.6028 4.39904C16.4837 4.51813 16.332 4.59923 16.1668 4.63209C16.0016 4.66495 15.8304 4.64809 15.6748 4.58363C15.5192 4.51918 15.3862 4.41003 15.2926 4.26999C15.199 4.12996 15.1491 3.96531 15.1491 3.79689C15.1491 3.57104 15.2388 3.35444 15.3985 3.19475C15.5582 3.03505 15.7748 2.94533 16.0007 2.94533ZM15.1856 12.8959H16.8731C16.8982 12.8962 16.9232 12.8915 16.9466 12.8821C16.97 12.8727 16.9912 12.8588 17.0092 12.8411C17.0271 12.8234 17.0413 12.8023 17.051 12.7791C17.0608 12.7559 17.0658 12.7309 17.0658 12.7057L16.0866 5.60158L14.9955 12.7057C14.9961 12.756 15.0164 12.8039 15.0519 12.8394C15.0874 12.8749 15.1353 12.8952 15.1856 12.8959ZM18.8314 16.6172V15.6719C18.831 15.6468 18.8357 15.622 18.8451 15.5987C18.8546 15.5755 18.8686 15.5544 18.8863 15.5367C18.904 15.519 18.9251 15.505 18.9483 15.4955C18.9715 15.4861 18.9964 15.4814 19.0215 15.4818L26.1309 15.9636L19.0215 16.8073C18.9963 16.808 18.9713 16.8036 18.9479 16.7943C18.9245 16.785 18.9033 16.771 18.8855 16.7532C18.8677 16.7354 18.8537 16.7142 18.8444 16.6908C18.8351 16.6674 18.8307 16.6424 18.8314 16.6172ZM16.0215 14.1432C16.418 14.1412 16.8062 14.2569 17.1369 14.4757C17.4676 14.6945 17.7259 15.0065 17.8791 15.3722C18.0322 15.738 18.0734 16.141 17.9973 16.5301C17.9212 16.9193 17.7313 17.2771 17.4516 17.5582C17.172 17.8393 16.8152 18.0311 16.4264 18.1092C16.0377 18.1873 15.6345 18.1483 15.268 17.997C14.9014 17.8457 14.5881 17.5891 14.3675 17.2595C14.147 16.93 14.0293 16.5424 14.0293 16.1459C14.0293 15.6147 14.2403 15.1054 14.6159 14.7298C14.9914 14.3542 15.5008 14.1432 16.0319 14.1432H16.0215ZM26.2611 5.72918C23.8873 3.35538 20.7638 1.8781 17.4229 1.54905C14.082 1.22 10.7304 2.05954 7.93911 3.92462C5.14781 5.7897 3.08956 8.56493 2.11506 11.7774C1.14055 14.9899 1.31009 18.441 2.59478 21.5425C3.87947 24.644 6.19983 27.2041 9.16049 28.7866C12.1212 30.3691 15.5389 30.8761 18.8315 30.2212C22.1241 29.5663 25.0877 27.79 27.2174 25.1949C29.3471 22.5999 30.5111 19.3467 30.5111 15.9896C30.5135 14.0837 30.1393 12.1961 29.4099 10.4353C28.6806 8.67448 27.6105 7.07515 26.2611 5.72918Z" fill="black"/>
</svg>
