<svg width="12" height="12" viewBox="0 0 12 12" fill="none" xmlns="http://www.w3.org/2000/svg">
<path d="M6 0C7.65562 0 9.15539 0.671953 10.2413 1.75734C11.328 2.84461 12 4.34438 12 6C12 7.6568 11.328 9.1568 10.2427 10.2424C9.1568 11.328 7.6568 12 6 12C4.34531 12 2.84531 11.328 1.75898 10.2424L1.75688 10.2401C0.671484 9.15422 0 7.65445 0 6C0 4.3432 0.671953 2.8432 1.75758 1.75734C2.8432 0.671953 4.3432 0 6 0ZM6.33422 4.62844L5.98055 5.00086L5.62172 4.6493C5.28539 4.31789 5.03086 4.06805 4.53773 4.06078L4.47398 4.06148C4.2 4.07133 3.94805 4.17141 3.7657 4.34133C3.58992 4.50539 3.47742 4.74023 3.47297 5.02594L3.47367 5.08687C3.50508 5.9618 4.38703 6.76594 5.11758 7.4318C5.26195 7.56352 5.40117 7.69055 5.54156 7.82555L5.96836 8.23641L6.54 7.66945L6.91758 7.30359C7.15008 7.08117 7.40766 6.83437 7.64508 6.58852C7.81477 6.41344 7.97484 6.23719 8.11031 6.06961C8.23922 5.90977 8.34469 5.75953 8.40961 5.62969C8.50969 5.42953 8.54133 5.22914 8.52023 5.04305C8.49914 4.8593 8.42625 4.68633 8.31703 4.53867C8.20406 4.38609 8.05312 4.25953 7.88062 4.17328C7.68398 4.07484 7.45758 4.02844 7.22695 4.05492C6.83297 4.09969 6.60797 4.33828 6.33422 4.62844ZM5.9625 4.00289C6.27727 3.67805 6.58172 3.42258 7.1475 3.35812C7.51687 3.31594 7.87875 3.39 8.19375 3.54797C8.46492 3.68367 8.70234 3.88242 8.8793 4.12172C9.0607 4.36664 9.18188 4.65492 9.2168 4.96336C9.25289 5.27672 9.20086 5.61164 9.03492 5.94281C8.94422 6.12422 8.81203 6.31547 8.65617 6.50883C8.50664 6.69375 8.3325 6.88547 8.14992 7.07414C7.90078 7.33219 7.63781 7.58414 7.4018 7.80984L7.03383 8.16609L5.97563 9.21586L5.05617 8.33039C4.93992 8.21859 4.79508 8.08664 4.64578 7.9507C3.8168 7.19461 2.81625 6.28289 2.7743 5.11172L2.77336 5.02008C2.77945 4.52695 2.97797 4.11773 3.28852 3.82828C3.59297 3.54422 4.00594 3.37805 4.44914 3.36211L4.54383 3.36117C5.23312 3.37008 5.57859 3.63422 5.9625 4.00289ZM9.73008 2.26992C8.77617 1.31625 7.45711 0.726094 6 0.726094C4.54359 0.726094 3.22477 1.31672 2.27086 2.27062C1.31625 3.225 0.726094 4.54359 0.726094 6C0.726094 7.45734 1.31602 8.77617 2.26945 9.72914C3.22383 10.684 4.54266 11.2739 6 11.2739C7.45641 11.2739 8.775 10.6837 9.72937 9.72914C10.6833 8.77523 11.2739 7.45641 11.2739 6C11.2739 4.54289 10.6838 3.22383 9.73008 2.26992Z" fill="white"/>
</svg>
